<?xml version="1.0" encoding="UTF-8"?>
<!DOCTYPE svg PUBLIC "-//W3C//DTD SVG 1.1//EN" "http://www.w3.org/Graphics/SVG/1.1/DTD/svg11.dtd">
<svg version="1.1" xmlns="http://www.w3.org/2000/svg" xmlns:xlink="http://www.w3.org/1999/xlink" x="0" y="0" width="256" height="256" viewBox="0, 0, 256, 256">
  <g id="base">
    <path d="M0,0 L256,0 L256,256 L0,256 L0,0 z" fill="#047AED" id="background"/>
  </g>
  <g id="icon">
    <path d="M140.135,157.59 C137.686,171.545 141.943,186.025 152.173,196.514 L40.5,196.514 L40.5,157.59 L140.135,157.59 z M106.016,168.516 L97.768,168.516 L90.94,185.589 L99.189,185.589 L106.016,168.516 z M79.277,168.516 L71.029,168.516 L64.2,185.589 L72.448,185.589 L79.277,168.516 z M65.907,168.516 L57.658,168.516 L50.829,185.589 L59.078,185.589 L65.907,168.516 z M92.647,168.516 L84.398,168.516 L77.57,185.589 L85.818,185.589 L92.647,168.516 z M119.388,168.516 L111.14,168.516 L104.311,185.589 L112.558,185.589 L119.388,168.516 z M119.388,119.416 L112.558,136.488 L104.311,136.488 L111.14,119.416 L119.388,119.416 z M92.647,119.416 L85.818,136.488 L77.57,136.488 L84.398,119.416 L92.647,119.416 z M65.907,119.416 L59.078,136.488 L50.829,136.488 L57.658,119.416 L65.907,119.416 z M79.277,119.416 L72.448,136.488 L64.2,136.488 L71.029,119.416 L79.277,119.416 z M106.016,119.416 L99.189,136.488 L90.94,136.488 L97.768,119.416 L106.016,119.416 z M195.795,108.49 L40.5,108.49 L40.5,147.414 L143.216,147.414 C152.059,127.288 174.32,116.383 195.795,122.18 L195.795,108.49 z M184.155,133.986 C201.466,133.986 215.5,148.02 215.5,165.331 C215.5,182.642 201.466,196.676 184.155,196.676 C166.843,196.676 152.81,182.642 152.81,165.331 C152.81,148.02 166.843,133.986 184.155,133.986 z M193.707,143.144 L168.994,173.163 L184.728,168.519 L176.784,187.198 L201.893,155.529 L186.234,160.085 L193.707,143.144 z M177.358,73.084 C180.508,73.084 183.061,75.636 183.061,78.785 C183.061,81.934 180.508,84.487 177.358,84.487 C174.21,84.487 171.656,81.934 171.656,78.785 C171.656,75.636 174.21,73.084 177.358,73.084 z M106.016,70.249 L99.189,87.322 L90.94,87.322 L97.768,70.249 L106.016,70.249 z M79.277,70.249 L72.448,87.322 L64.2,87.322 L71.029,70.249 L79.277,70.249 z M65.907,70.249 L59.078,87.322 L50.829,87.322 L57.658,70.249 L65.907,70.249 z M92.647,70.249 L85.818,87.322 L77.57,87.322 L84.398,70.249 L92.647,70.249 z M119.388,70.249 L112.558,87.322 L104.311,87.322 L111.14,70.249 L119.388,70.249 z M195.795,59.324 L40.5,59.324 L40.5,98.248 L195.795,98.248 L195.795,59.324 z" fill="#FFFFFF" id="cache-enabler-icon"/>
  </g>
</svg>
